<?xml version="1.0" standalone="no"?>
<svg xmlns:xlink="http://www.w3.org/1999/xlink" id="wave" style="transform:rotate(180deg); transition: 0.3s" viewBox="0 0 1440 320" version="1.1" xmlns="http://www.w3.org/2000/svg"><defs><linearGradient id="sw-gradient-0" x1="0" x2="0" y1="1" y2="0"><stop stop-color="rgba(109, 81, 164, 1)" offset="0%"/><stop stop-color="rgba(227, 165, 196, 1)" offset="100%"/></linearGradient></defs><path style="transform:translate(0, 0px); opacity:1" fill="url(#sw-gradient-0)" d="M0,128L40,117.3C80,107,160,85,240,90.7C320,96,400,128,480,165.3C560,203,640,245,720,218.7C800,192,880,96,960,74.7C1040,53,1120,107,1200,133.3C1280,160,1360,160,1440,133.3C1520,107,1600,53,1680,37.3C1760,21,1840,43,1920,90.7C2000,139,2080,213,2160,240C2240,267,2320,245,2400,224C2480,203,2560,181,2640,154.7C2720,128,2800,96,2880,90.7C2960,85,3040,107,3120,117.3C3200,128,3280,128,3360,106.7C3440,85,3520,43,3600,21.3C3680,0,3760,0,3840,32C3920,64,4000,128,4080,138.7C4160,149,4240,107,4320,101.3C4400,96,4480,128,4560,144C4640,160,4720,160,4800,149.3C4880,139,4960,117,5040,101.3C5120,85,5200,75,5280,64C5360,53,5440,43,5520,48C5600,53,5680,75,5720,85.3L5760,96L5760,320L5720,320C5680,320,5600,320,5520,320C5440,320,5360,320,5280,320C5200,320,5120,320,5040,320C4960,320,4880,320,4800,320C4720,320,4640,320,4560,320C4480,320,4400,320,4320,320C4240,320,4160,320,4080,320C4000,320,3920,320,3840,320C3760,320,3680,320,3600,320C3520,320,3440,320,3360,320C3280,320,3200,320,3120,320C3040,320,2960,320,2880,320C2800,320,2720,320,2640,320C2560,320,2480,320,2400,320C2320,320,2240,320,2160,320C2080,320,2000,320,1920,320C1840,320,1760,320,1680,320C1600,320,1520,320,1440,320C1360,320,1280,320,1200,320C1120,320,1040,320,960,320C880,320,800,320,720,320C640,320,560,320,480,320C400,320,320,320,240,320C160,320,80,320,40,320L0,320Z"/></svg>